# xmcd
#
# Track frame offsets: 
#        150
#        22860
#        37262
#        54807
#        70405
#        88725
#        102792
#        120700
#        136067
#        157310
#        179577
#
# Disc length: 2597 seconds
#
# Revision: 5
# Processed by: cddbd v1.5.2PL0 Copyright (c) Steve Scherf et al.
# Submitted via: ExactAudioCopy v0.99pb4
#
DISCID=940a230b
DTITLE=George Thorogood - Half a Boy, Half a Man
DYEAR=1999
DGENRE=Blues
TTITLE0=I Don't Trust Nobody
TTITLE1=Double Shot
TTITLE2=99 Days In Jail
TTITLE3=half a boy, Half A Man
TTITLE4=As Long As I Have You
TTITLE5=B.I.G.T.I.M.E.
TTITLE6=Be Bop Grandma
TTITLE7=Nothing New
TTITLE8=Just Passin' Thru
TTITLE9=Hellbound Train
TTITLE10=Not Tonight
EXTD=
EXTT0=
EXTT1=
EXTT2=
EXTT3=
EXTT4=
EXTT5=
EXTT6=
EXTT7=
EXTT8=
EXTT9=
EXTT10=
PLAYORDER=
